<?xml version="1.0" standalone="no"?>
<!DOCTYPE svg PUBLIC "-//W3C//DTD SVG 20010904//EN"
 "http://www.w3.org/TR/2001/REC-SVG-20010904/DTD/svg10.dtd">
<svg version="1.0" xmlns="http://www.w3.org/2000/svg"
 width="512.000000pt" height="512.000000pt" viewBox="0 0 512.000000 512.000000"
 preserveAspectRatio="xMidYMid meet">

<g transform="translate(0.000000,512.000000) scale(0.100000,-0.100000)"
fill="#000000" stroke="none">
<path d="M1516 4850 c-299 -38 -652 -156 -892 -300 -427 -254 -645 -586 -621
-943 20 -279 113 -426 417 -662 218 -168 255 -224 255 -385 0 -162 -41 -223
-272 -398 -299 -228 -397 -398 -397 -697 0 -150 19 -236 80 -358 59 -115 111
-185 218 -292 278 -276 733 -481 1198 -541 233 -30 511 -8 782 60 812 206
1460 849 1664 1651 45 180 72 359 72 489 0 58 1 61 58 125 260 295 544 641
736 896 195 259 295 432 303 523 8 88 -62 151 -152 138 -125 -19 -431 -230
-894 -616 -106 -89 -195 -159 -198 -156 -3 2 -24 47 -48 99 -125 280 -287 509
-507 723 -352 340 -787 555 -1273 629 -128 19 -429 28 -529 15z m524 -205
c524 -87 996 -360 1322 -763 133 -166 272 -407 336 -584 l21 -56 -222 -198
c-266 -238 -437 -398 -738 -686 l-226 -217 -79 -16 c-244 -51 -399 -164 -494
-360 -47 -96 -73 -187 -125 -428 -9 -43 -31 -106 -49 -140 -36 -71 -81 -103
-161 -113 -92 -13 -135 -93 -85 -157 37 -47 287 -116 500 -138 327 -33 613 55
804 247 116 116 210 291 256 473 10 37 37 70 177 215 92 94 250 262 351 373
102 112 187 202 188 200 1 -1 -4 -40 -12 -87 -115 -664 -534 -1229 -1134
-1530 -465 -233 -988 -290 -1445 -159 -464 134 -817 377 -966 664 -102 198
-89 446 34 618 48 67 94 109 254 231 233 177 323 325 323 531 0 197 -92 346
-325 523 -215 164 -276 233 -322 365 -34 95 -42 244 -19 340 47 202 226 415
481 574 219 137 551 253 835 293 93 13 408 4 520 -15z m2759 -847 c-269 -401
-986 -1243 -1642 -1928 -106 -110 -131 -132 -145 -124 -9 6 -79 77 -157 159
l-140 147 145 142 c554 538 1309 1202 1720 1512 133 100 272 195 278 190 2 -3
-25 -46 -59 -98z m-2065 -2037 l188 -188 -17 -59 c-77 -269 -252 -448 -504
-516 -59 -16 -108 -21 -221 -22 -127 -1 -290 16 -290 31 0 2 11 19 25 37 39
51 81 153 104 251 11 50 32 140 46 202 48 203 123 316 255 383 53 27 179 68
215 69 6 1 95 -84 199 -188z"/>
<path d="M1982 4239 c-121 -24 -240 -115 -295 -228 -30 -62 -32 -73 -32 -176
0 -105 2 -113 34 -177 181 -361 712 -284 781 114 30 169 -69 356 -225 429 -94
45 -173 56 -263 38z m197 -216 c103 -64 138 -194 78 -296 -89 -152 -307 -150
-391 2 -66 122 -2 279 130 321 50 16 132 4 183 -27z"/>
<path d="M857 3920 c-109 -28 -221 -120 -273 -225 -27 -56 -29 -68 -29 -175 0
-107 2 -119 29 -175 40 -81 119 -158 203 -198 63 -30 75 -32 173 -32 102 0
109 1 182 38 88 43 152 107 195 195 26 52 28 66 28 172 0 107 -2 119 -29 175
-40 81 -119 158 -202 197 -54 25 -81 31 -152 34 -48 2 -104 -1 -125 -6z m191
-196 c147 -61 182 -255 65 -366 -39 -37 -93 -58 -153 -58 -202 0 -300 243
-153 382 59 56 164 75 241 42z"/>
<path d="M2893 3575 c-80 -22 -131 -52 -188 -109 -166 -166 -161 -423 11 -586
30 -28 80 -63 111 -78 52 -24 69 -27 168 -27 103 0 114 2 177 32 93 44 151
100 196 191 35 73 37 80 37 176 -1 129 -24 192 -102 276 -78 85 -172 130 -279
136 -51 3 -97 -1 -131 -11z m222 -210 c143 -84 138 -305 -10 -383 -173 -91
-377 69 -324 256 16 56 86 132 139 149 55 19 143 9 195 -22z"/>
<path d="M990 1876 c-212 -46 -357 -255 -321 -462 32 -182 163 -313 345 -345
245 -42 476 154 476 406 0 198 -142 367 -340 405 -65 12 -90 12 -160 -4z m156
-191 c57 -17 115 -70 139 -127 20 -48 19 -130 -1 -171 -65 -130 -214 -172
-331 -94 -66 44 -98 104 -97 182 0 100 55 176 151 211 50 17 79 17 139 -1z"/>
</g>
</svg>
